<svg xmlns="http://www.w3.org/2000/svg" xmlns:xlink="http://www.w3.org/1999/xlink" width="600" zoomAndPan="magnify" viewBox="0 0 450 74.999997" height="100" preserveAspectRatio="xMidYMid meet" version="1.0"><defs><g/><clipPath id="e31c6391cf"><path d="M 24.472656 8 L 81.273438 8 L 81.273438 74.210938 L 24.472656 74.210938 Z M 24.472656 8 " clip-rule="nonzero"/></clipPath><clipPath id="c25ec7452e"><path d="M 8.058594 0.75 L 60 0.75 L 60 63 L 8.058594 63 Z M 8.058594 0.75 " clip-rule="nonzero"/></clipPath></defs><path fill="#710cf5" d="M 29.546875 68.121094 L 29.546875 62.171875 C 34.910156 55.933594 35.609375 49.578125 34.011719 42.765625 C 31.851562 33.5625 24.066406 27.625 21 25.597656 C 24.285156 26.996094 33.160156 31.472656 36.953125 40.257812 C 40.726562 48.996094 40.164062 57.648438 29.546875 68.121094 " fill-opacity="1" fill-rule="nonzero"/><g clip-path="url(#e31c6391cf)"><path fill="#e72cbb" d="M 66.15625 22.277344 C 62.003906 28.742188 59.78125 36.277344 59.78125 36.277344 C 60.714844 28.964844 63.820312 22.277344 63.820312 22.277344 C 67.46875 13.191406 72.261719 8.035156 72.261719 8.035156 C 72.257812 8.039062 72.25 8.042969 72.246094 8.046875 C 71.765625 8.371094 62.175781 12.035156 53.726562 42.007812 C 46.375 68.085938 24.507812 72.53125 24.507812 72.53125 C 24.507812 72.53125 26.609375 72.441406 29.546875 71.792969 L 29.546875 74.210938 L 47.742188 74.210938 C 54.390625 74.210938 59.78125 68.820312 59.78125 62.171875 L 59.78125 52.511719 L 81.273438 52.511719 L 81.273438 34.320312 C 81.273438 27.667969 75.882812 22.277344 69.230469 22.277344 L 66.15625 22.277344 " fill-opacity="1" fill-rule="nonzero"/></g><g clip-path="url(#c25ec7452e)"><path fill="#340099" d="M 48.90625 28.8125 C 48.816406 29.550781 48.609375 30.246094 48.304688 30.863281 C 47.703125 32.082031 46.703125 32.992188 45.433594 33.335938 C 42.734375 34.0625 39.824219 31.949219 38.929688 28.621094 C 38.886719 28.457031 38.847656 28.292969 38.816406 28.128906 C 38.558594 26.855469 38.640625 25.601562 39 24.519531 C 39.265625 22.320312 40.558594 20.507812 42.476562 19.992188 C 45.171875 19.265625 48.085938 21.378906 48.980469 24.710938 C 49.367188 26.152344 49.3125 27.589844 48.90625 28.8125 Z M 41.585938 0.789062 C 34.9375 0.789062 29.546875 6.179688 29.546875 12.832031 L 29.546875 22.277344 L 8.058594 22.277344 L 8.058594 40.472656 C 8.058594 45.101562 10.667969 49.121094 14.496094 51.132812 C 16.167969 52.015625 18.074219 52.511719 20.097656 52.511719 L 29.546875 52.511719 L 29.546875 62.171875 C 34.910156 55.933594 35.609375 49.578125 34.011719 42.765625 C 31.851562 33.5625 24.066406 27.625 21 25.597656 C 20.210938 25.261719 19.746094 25.101562 19.746094 25.101562 C 19.953125 25.128906 20.15625 25.15625 20.355469 25.183594 C 20.660156 25.226562 20.957031 25.269531 21.25 25.320312 C 29.300781 26.632812 35.304688 30.101562 39.382812 33.367188 C 40.53125 34.289062 41.523438 35.191406 42.367188 36.023438 C 44.363281 37.996094 45.523438 39.585938 45.882812 40.101562 C 45.964844 40.222656 46.003906 40.285156 46.003906 40.285156 C 46.117188 40.011719 46.230469 39.746094 46.347656 39.480469 C 50.4375 30.03125 55.34375 23.140625 59.78125 18.257812 L 59.78125 0.789062 L 41.585938 0.789062 " fill-opacity="1" fill-rule="nonzero"/></g><path fill="#710cf5" d="M 48.90625 28.8125 C 48.816406 29.550781 48.609375 30.246094 48.304688 30.863281 C 47.703125 32.082031 46.703125 32.992188 45.433594 33.335938 C 42.734375 34.0625 39.824219 31.949219 38.929688 28.621094 C 38.886719 28.457031 38.847656 28.292969 38.816406 28.128906 C 38.558594 26.855469 38.640625 25.601562 39 24.519531 C 38.914062 25.261719 38.941406 26.046875 39.101562 26.847656 C 39.132812 27.007812 39.171875 27.171875 39.214844 27.335938 C 40.109375 30.664062 43.019531 32.777344 45.71875 32.050781 C 46.988281 31.707031 47.988281 30.796875 48.589844 29.578125 C 48.710938 29.335938 48.816406 29.078125 48.90625 28.8125 " fill-opacity="1" fill-rule="nonzero"/><g fill="#e72cbb" fill-opacity="1"><g transform="translate(91.781243, 56.999979)"><g><path d="M 3.953125 0 C 3.378906 0 3.09375 -0.28125 3.09375 -0.84375 L 3.09375 -34.15625 C 3.09375 -34.71875 3.378906 -35 3.953125 -35 L 9.296875 -35 C 9.734375 -35 10.066406 -34.816406 10.296875 -34.453125 L 17.546875 -22.75 C 17.617188 -22.644531 17.695312 -22.59375 17.78125 -22.59375 C 17.863281 -22.59375 17.921875 -22.644531 17.953125 -22.75 L 25.296875 -34.453125 C 25.535156 -34.816406 25.867188 -35 26.296875 -35 L 31.65625 -35 C 32.21875 -35 32.5 -34.71875 32.5 -34.15625 L 32.5 -0.84375 C 32.5 -0.28125 32.21875 0 31.65625 0 L 26.296875 0 C 25.734375 0 25.453125 -0.28125 25.453125 -0.84375 L 25.453125 -22.5 C 25.453125 -22.632812 25.410156 -22.71875 25.328125 -22.75 C 25.242188 -22.78125 25.164062 -22.726562 25.09375 -22.59375 L 20.046875 -14.34375 C 19.816406 -13.976562 19.484375 -13.796875 19.046875 -13.796875 L 16.5 -13.796875 C 16.0625 -13.796875 15.726562 -13.976562 15.5 -14.34375 L 10.5 -22.59375 C 10.4375 -22.726562 10.363281 -22.78125 10.28125 -22.75 C 10.195312 -22.71875 10.15625 -22.632812 10.15625 -22.5 L 10.15625 -0.84375 C 10.15625 -0.28125 9.867188 0 9.296875 0 Z M 3.953125 0 "/></g></g></g><g fill="#e72cbb" fill-opacity="1"><g transform="translate(125.825743, 56.999979)"><g><path d="M 27.34375 -29.796875 C 27.34375 -29.234375 27.0625 -28.953125 26.5 -28.953125 L 10.40625 -28.953125 C 10.195312 -28.953125 10.09375 -28.851562 10.09375 -28.65625 L 10.09375 -21 C 10.09375 -20.800781 10.195312 -20.703125 10.40625 -20.703125 L 20.84375 -20.703125 C 21.414062 -20.703125 21.703125 -20.414062 21.703125 -19.84375 L 21.703125 -15.5 C 21.703125 -14.9375 21.414062 -14.65625 20.84375 -14.65625 L 10.40625 -14.65625 C 10.195312 -14.65625 10.09375 -14.550781 10.09375 -14.34375 L 10.09375 -6.34375 C 10.09375 -6.144531 10.195312 -6.046875 10.40625 -6.046875 L 26.5 -6.046875 C 27.0625 -6.046875 27.34375 -5.765625 27.34375 -5.203125 L 27.34375 -0.84375 C 27.34375 -0.28125 27.0625 0 26.5 0 L 3.90625 0 C 3.332031 0 3.046875 -0.28125 3.046875 -0.84375 L 3.046875 -34.15625 C 3.046875 -34.71875 3.332031 -35 3.90625 -35 L 26.5 -35 C 27.0625 -35 27.34375 -34.71875 27.34375 -34.15625 Z M 27.34375 -29.796875 "/></g></g></g><g fill="#e72cbb" fill-opacity="1"><g transform="translate(153.521221, 56.999979)"><g><path d="M 3.90625 0 C 3.332031 0 3.046875 -0.28125 3.046875 -0.84375 L 3.046875 -34.15625 C 3.046875 -34.71875 3.332031 -35 3.90625 -35 L 16.15625 -35 C 18.65625 -35 20.84375 -34.554688 22.71875 -33.671875 C 24.601562 -32.785156 26.0625 -31.539062 27.09375 -29.9375 C 28.132812 -28.34375 28.65625 -26.5 28.65625 -24.40625 L 28.65625 -10.59375 C 28.65625 -8.5 28.132812 -6.648438 27.09375 -5.046875 C 26.0625 -3.453125 24.601562 -2.210938 22.71875 -1.328125 C 20.84375 -0.441406 18.65625 0 16.15625 0 Z M 10.09375 -6.34375 C 10.09375 -6.144531 10.195312 -6.046875 10.40625 -6.046875 L 16.40625 -6.046875 C 17.9375 -6.046875 19.175781 -6.5625 20.125 -7.59375 C 21.070312 -8.632812 21.5625 -10.019531 21.59375 -11.75 L 21.59375 -23.25 C 21.59375 -24.976562 21.117188 -26.359375 20.171875 -27.390625 C 19.222656 -28.429688 17.945312 -28.953125 16.34375 -28.953125 L 10.40625 -28.953125 C 10.195312 -28.953125 10.09375 -28.851562 10.09375 -28.65625 Z M 10.09375 -6.34375 "/></g></g></g><g fill="#340099" fill-opacity="1"><g transform="translate(194.177074, 56.749989)"><g><path d="M 3.90625 0 C 3.332031 0 3.046875 -0.28125 3.046875 -0.84375 L 3.046875 -34.15625 C 3.046875 -34.71875 3.332031 -35 3.90625 -35 L 9.25 -35 C 9.8125 -35 10.09375 -34.71875 10.09375 -34.15625 L 10.09375 -0.84375 C 10.09375 -0.28125 9.8125 0 9.25 0 Z M 3.90625 0 "/></g></g></g><g fill="#340099" fill-opacity="1"><g transform="translate(205.825043, 56.749989)"><g><path d="M 3.90625 0 C 3.332031 0 3.046875 -0.28125 3.046875 -0.84375 L 3.046875 -34.15625 C 3.046875 -34.71875 3.332031 -35 3.90625 -35 L 9.046875 -35 C 9.484375 -35 9.816406 -34.816406 10.046875 -34.453125 L 22.546875 -13.65625 C 22.617188 -13.519531 22.695312 -13.46875 22.78125 -13.5 C 22.863281 -13.53125 22.90625 -13.613281 22.90625 -13.75 L 22.90625 -34.15625 C 22.90625 -34.71875 23.1875 -35 23.75 -35 L 29 -35 C 29.5625 -35 29.84375 -34.71875 29.84375 -34.15625 L 29.84375 -0.84375 C 29.84375 -0.28125 29.5625 0 29 0 L 23.90625 0 C 23.5 0 23.164062 -0.195312 22.90625 -0.59375 L 10.34375 -21.59375 C 10.28125 -21.726562 10.207031 -21.78125 10.125 -21.75 C 10.039062 -21.71875 10 -21.632812 10 -21.5 L 10.046875 -0.84375 C 10.046875 -0.28125 9.765625 0 9.203125 0 Z M 3.90625 0 "/></g></g></g><g fill="#340099" fill-opacity="1"><g transform="translate(237.219949, 56.749989)"><g><path d="M 12.59375 0 C 12.132812 0 11.820312 -0.234375 11.65625 -0.703125 L 1.5 -34.046875 C 1.46875 -34.117188 1.453125 -34.21875 1.453125 -34.34375 C 1.453125 -34.78125 1.703125 -35 2.203125 -35 L 8 -35 C 8.46875 -35 8.785156 -34.765625 8.953125 -34.296875 L 15.5 -10.203125 C 15.53125 -10.066406 15.59375 -10 15.6875 -10 C 15.789062 -10 15.863281 -10.066406 15.90625 -10.203125 L 22.34375 -34.25 C 22.507812 -34.75 22.828125 -35 23.296875 -35 L 28.953125 -35 C 29.253906 -35 29.46875 -34.90625 29.59375 -34.71875 C 29.726562 -34.539062 29.75 -34.316406 29.65625 -34.046875 L 19.34375 -0.703125 C 19.175781 -0.234375 18.863281 0 18.40625 0 Z M 12.59375 0 "/></g></g></g><g fill="#340099" fill-opacity="1"><g transform="translate(266.815135, 56.749989)"><g><path d="M 27.34375 -29.796875 C 27.34375 -29.234375 27.0625 -28.953125 26.5 -28.953125 L 10.40625 -28.953125 C 10.195312 -28.953125 10.09375 -28.851562 10.09375 -28.65625 L 10.09375 -21 C 10.09375 -20.800781 10.195312 -20.703125 10.40625 -20.703125 L 20.84375 -20.703125 C 21.414062 -20.703125 21.703125 -20.414062 21.703125 -19.84375 L 21.703125 -15.5 C 21.703125 -14.9375 21.414062 -14.65625 20.84375 -14.65625 L 10.40625 -14.65625 C 10.195312 -14.65625 10.09375 -14.550781 10.09375 -14.34375 L 10.09375 -6.34375 C 10.09375 -6.144531 10.195312 -6.046875 10.40625 -6.046875 L 26.5 -6.046875 C 27.0625 -6.046875 27.34375 -5.765625 27.34375 -5.203125 L 27.34375 -0.84375 C 27.34375 -0.28125 27.0625 0 26.5 0 L 3.90625 0 C 3.332031 0 3.046875 -0.28125 3.046875 -0.84375 L 3.046875 -34.15625 C 3.046875 -34.71875 3.332031 -35 3.90625 -35 L 26.5 -35 C 27.0625 -35 27.34375 -34.71875 27.34375 -34.15625 Z M 27.34375 -29.796875 "/></g></g></g><g fill="#340099" fill-opacity="1"><g transform="translate(294.510613, 56.749989)"><g><path d="M 3.90625 0 C 3.332031 0 3.046875 -0.28125 3.046875 -0.84375 L 3.046875 -34.15625 C 3.046875 -34.71875 3.332031 -35 3.90625 -35 L 9.046875 -35 C 9.484375 -35 9.816406 -34.816406 10.046875 -34.453125 L 22.546875 -13.65625 C 22.617188 -13.519531 22.695312 -13.46875 22.78125 -13.5 C 22.863281 -13.53125 22.90625 -13.613281 22.90625 -13.75 L 22.90625 -34.15625 C 22.90625 -34.71875 23.1875 -35 23.75 -35 L 29 -35 C 29.5625 -35 29.84375 -34.71875 29.84375 -34.15625 L 29.84375 -0.84375 C 29.84375 -0.28125 29.5625 0 29 0 L 23.90625 0 C 23.5 0 23.164062 -0.195312 22.90625 -0.59375 L 10.34375 -21.59375 C 10.28125 -21.726562 10.207031 -21.78125 10.125 -21.75 C 10.039062 -21.71875 10 -21.632812 10 -21.5 L 10.046875 -0.84375 C 10.046875 -0.28125 9.765625 0 9.203125 0 Z M 3.90625 0 "/></g></g></g><g fill="#340099" fill-opacity="1"><g transform="translate(325.90552, 56.749989)"><g><path d="M 26.953125 -35 C 27.515625 -35 27.796875 -34.71875 27.796875 -34.15625 L 27.796875 -29.75 C 27.796875 -29.1875 27.515625 -28.90625 26.953125 -28.90625 L 18.296875 -28.90625 C 18.097656 -28.90625 18 -28.800781 18 -28.59375 L 18 -0.84375 C 18 -0.28125 17.71875 0 17.15625 0 L 11.796875 0 C 11.234375 0 10.953125 -0.28125 10.953125 -0.84375 L 10.953125 -28.59375 C 10.953125 -28.800781 10.851562 -28.90625 10.65625 -28.90625 L 2.25 -28.90625 C 1.6875 -28.90625 1.40625 -29.1875 1.40625 -29.75 L 1.40625 -34.15625 C 1.40625 -34.71875 1.6875 -35 2.25 -35 Z M 26.953125 -35 "/></g></g></g><g fill="#340099" fill-opacity="1"><g transform="translate(353.650997, 56.749989)"><g><path d="M 15.5 0.546875 C 12.894531 0.546875 10.601562 0.015625 8.625 -1.046875 C 6.644531 -2.117188 5.101562 -3.613281 4 -5.53125 C 2.894531 -7.445312 2.34375 -9.65625 2.34375 -12.15625 L 2.34375 -22.84375 C 2.34375 -25.3125 2.894531 -27.492188 4 -29.390625 C 5.101562 -31.296875 6.644531 -32.773438 8.625 -33.828125 C 10.601562 -34.878906 12.894531 -35.40625 15.5 -35.40625 C 18.132812 -35.40625 20.441406 -34.878906 22.421875 -33.828125 C 24.410156 -32.773438 25.953125 -31.296875 27.046875 -29.390625 C 28.148438 -27.492188 28.703125 -25.3125 28.703125 -22.84375 L 28.703125 -12.15625 C 28.703125 -9.65625 28.148438 -7.4375 27.046875 -5.5 C 25.953125 -3.5625 24.410156 -2.066406 22.421875 -1.015625 C 20.441406 0.0234375 18.132812 0.546875 15.5 0.546875 Z M 15.5 -5.5 C 17.332031 -5.5 18.816406 -6.082031 19.953125 -7.25 C 21.085938 -8.414062 21.65625 -9.96875 21.65625 -11.90625 L 21.65625 -22.90625 C 21.65625 -24.832031 21.09375 -26.382812 19.96875 -27.5625 C 18.851562 -28.75 17.363281 -29.34375 15.5 -29.34375 C 13.664062 -29.34375 12.191406 -28.75 11.078125 -27.5625 C 9.960938 -26.382812 9.40625 -24.832031 9.40625 -22.90625 L 9.40625 -11.90625 C 9.40625 -9.96875 9.960938 -8.414062 11.078125 -7.25 C 12.191406 -6.082031 13.664062 -5.5 15.5 -5.5 Z M 15.5 -5.5 "/></g></g></g><g fill="#340099" fill-opacity="1"><g transform="translate(383.196195, 56.749989)"><g><path d="M 22.453125 0 C 22.015625 0 21.679688 -0.21875 21.453125 -0.65625 L 15.296875 -14.25 C 15.234375 -14.414062 15.117188 -14.5 14.953125 -14.5 L 10.40625 -14.5 C 10.195312 -14.5 10.09375 -14.398438 10.09375 -14.203125 L 10.09375 -0.84375 C 10.09375 -0.28125 9.8125 0 9.25 0 L 3.90625 0 C 3.332031 0 3.046875 -0.28125 3.046875 -0.84375 L 3.046875 -34.203125 C 3.046875 -34.765625 3.332031 -35.046875 3.90625 -35.046875 L 17.953125 -35.046875 C 20.085938 -35.046875 21.960938 -34.601562 23.578125 -33.71875 C 25.191406 -32.84375 26.441406 -31.601562 27.328125 -30 C 28.210938 -28.394531 28.65625 -26.5625 28.65625 -24.5 C 28.65625 -22.226562 28.085938 -20.273438 26.953125 -18.640625 C 25.816406 -17.015625 24.25 -15.867188 22.25 -15.203125 C 22.144531 -15.171875 22.078125 -15.113281 22.046875 -15.03125 C 22.015625 -14.945312 22.03125 -14.867188 22.09375 -14.796875 L 28.703125 -1 C 28.796875 -0.863281 28.84375 -0.710938 28.84375 -0.546875 C 28.84375 -0.378906 28.773438 -0.242188 28.640625 -0.140625 C 28.515625 -0.046875 28.332031 0 28.09375 0 Z M 10.40625 -28.953125 C 10.195312 -28.953125 10.09375 -28.851562 10.09375 -28.65625 L 10.09375 -20.25 C 10.09375 -20.050781 10.195312 -19.953125 10.40625 -19.953125 L 16.90625 -19.953125 C 18.300781 -19.953125 19.441406 -20.359375 20.328125 -21.171875 C 21.210938 -21.992188 21.65625 -23.070312 21.65625 -24.40625 C 21.65625 -25.738281 21.210938 -26.828125 20.328125 -27.671875 C 19.441406 -28.523438 18.300781 -28.953125 16.90625 -28.953125 Z M 10.40625 -28.953125 "/></g></g></g><g fill="#340099" fill-opacity="1"><g transform="translate(412.391444, 56.749989)"><g><path d="M 12.75 -0.046875 C 12.1875 -0.046875 11.90625 -0.332031 11.90625 -0.90625 L 11.90625 -13.25 L 11.796875 -13.65625 L 1.703125 -34 C 1.597656 -34.164062 1.546875 -34.316406 1.546875 -34.453125 C 1.546875 -34.617188 1.613281 -34.75 1.75 -34.84375 C 1.882812 -34.945312 2.066406 -35 2.296875 -35 L 8.09375 -35 C 8.5625 -35 8.894531 -34.78125 9.09375 -34.34375 L 15.203125 -21.34375 C 15.265625 -21.25 15.335938 -21.203125 15.421875 -21.203125 C 15.503906 -21.203125 15.5625 -21.25 15.59375 -21.34375 L 21.703125 -34.34375 C 21.929688 -34.78125 22.265625 -35 22.703125 -35 L 28.546875 -35 C 29.046875 -35 29.296875 -34.800781 29.296875 -34.40625 C 29.296875 -34.238281 29.265625 -34.101562 29.203125 -34 L 19 -13.65625 L 18.90625 -13.25 L 18.90625 -0.90625 C 18.90625 -0.332031 18.617188 -0.046875 18.046875 -0.046875 Z M 12.75 -0.046875 "/></g></g></g></svg>